<svg xmlns="http://www.w3.org/2000/svg" viewBox="0 0 32 32">
  <title>Smart Billing</title>
  <defs>
    <linearGradient id="f" x1="0" y1="0" x2="0" y2="1">
      <stop offset="0%" stop-color="#8B7CF6"/>
      <stop offset="100%" stop-color="#6D5EF0"/>
    </linearGradient>
  </defs>
  <rect width="32" height="32" rx="7" fill="url(#f)"/>
  <path fill="#fff" d="M10.5 6h11c.8 0 1.5.7 1.5 1.5V24l-1.4-.9-1.4.9-1.4-.9-1.4.9-1.4-.9-1.4.9-1.4-.9-1.4.9-1.4-.9-1.4.9V7.5c0-.8.7-1.5 1.5-1.5z"/>
  <rect x="13" y="9.2" width="6" height="1.4" rx=".7" fill="#5B6FD6"/>
  <rect x="13" y="12" width="8" height="1.4" rx=".7" fill="#B8C0F5"/>
  <rect x="13" y="14.8" width="5.5" height="1.4" rx=".7" fill="#B8C0F5"/>
  <path fill="#FFC145" d="M23.2 7.2l.7 1.6 1.6.7-1.6.7-.7 1.6-.7-1.6-1.6-.7 1.6-.7.7-1.6z"/>
</svg>
